<svg width="777" height="220" viewBox="0 0 777 220" fill="none" xmlns="http://www.w3.org/2000/svg">
<path d="M267.095 141.952H278.619L302.365 78.1349H290.754L276.96 114.889C275.738 118.119 274.429 122.048 272.857 127.635C271.46 122.484 270.238 118.73 268.841 114.889L254.873 78.1349H243L267.095 141.952Z" fill="#0B61EE"/>
<path d="M365.676 141.952V131.651H337.215V114.714H362.708V104.849H337.215V88.4365H365.676V78.1349H326.041V141.952H365.676Z" fill="#0B61EE"/>
<path d="M404.68 78.1349H393.505V141.952H431.394V131.651H404.68V78.1349Z" fill="#0B61EE"/>
<path d="M511.356 110C511.356 90.5317 498.61 77 480.364 77C462.118 77 449.459 90.619 449.459 110C449.459 129.468 462.031 143 480.277 143C498.61 143 511.356 129.381 511.356 110ZM499.571 110C499.571 123.444 492.063 132.262 480.364 132.262C468.666 132.262 461.158 123.619 461.158 110C461.158 96.3809 468.666 87.7381 480.364 87.7381C492.063 87.7381 499.571 96.3809 499.571 110Z" fill="#0B61EE"/>
<path d="M564.447 143C579.55 143 591.249 134.095 593.693 120.651H582.082C579.987 127.722 573.352 132.262 564.709 132.262C553.011 132.262 545.503 123.532 545.503 110C545.503 96.3809 552.923 87.8254 564.709 87.8254C573.177 87.8254 579.55 92.1905 581.733 99.6111H593.519C591.336 85.9048 580.074 77.0873 564.971 77.0873C546.288 77.0873 533.804 90.2698 533.804 110.087C533.804 130.079 545.852 143 564.447 143Z" fill="#0B61EE"/>
<path d="M630.603 78.1349H619.429V141.952H630.603V78.1349Z" fill="#0B61EE"/>
<path d="M654.877 88.4365H673.559V141.952H684.734V88.4365H703.416V78.1349H654.877V88.4365Z" fill="#0B61EE"/>
<path d="M744.146 116.81V141.952H755.32V116.81L776.797 78.1349H764.662L752.178 101.357C751.043 103.452 750.694 104.5 749.908 106.071C749.209 104.5 748.598 103.103 747.638 101.357L735.067 78.1349H722.582L744.146 116.81Z" fill="#0B61EE"/>
<path fill-rule="evenodd" clip-rule="evenodd" d="M0 104.171L200 0L150.66 220C130.641 111.858 41.8789 97.7217 0 104.171ZM70.3289 92.3556L168.156 41.402L144.022 149.011C134.23 96.1154 90.8133 89.2009 70.3289 92.3556ZM71.2647 164.05L108.122 158.63C99.3514 156.944 78.8556 148.268 67.0394 127.045L71.2647 164.05Z" fill="#0B61EE"/>
</svg>
